[Header]
FileType HTR
DataType HTRS
FileVersion 1
NumSegments 48
NumFrames 3
DataFrameRate 30
EulerRotationOrder ZYX
CalibrationUnits mm
RotationUnits Degrees
GlobalAxisofGravity Y
BoneLengthAxis Y
ScaleFactor 1.0
[SegmentNames&Hierarchy]
Wolf	GLOBAL
Becken	Wolf
Bauch	Becken
Bauch_001	Bauch
Brust	Bauch_001
Hals	Brust
Kopf_002	Hals
Kopf	Kopf_002
Unterkiefer	Kopf
Hals_fett	Unterkiefer
Maulunten	Unterkiefer
Mauloben	Kopf
MundW_L	Kopf
MundW_R	Kopf
Augen_con	Kopf
IK_Aug_R	Augen_con
IK_Aug_L	Augen_con
Aug_R	Kopf
aug_L	Kopf
Ohr_L	Kopf
Ohr_R	Kopf
Braun_O_L	Kopf
Braun_O_R	Kopf
aug_lied_O_L	Kopf
aug_lied_O_R	Kopf
aug_lied_U_L	Kopf
aug_lied_U_R	Kopf
Bauch_003	Brust
Schalterplatte_L	Bauch_003
Oberarm_L	Schalterplatte_L
Unterarm_L	Oberarm_L
Vorderpfote_L	Unterarm_L
Schalterplatte_R	Bauch_003
Oberarm_R	Schalterplatte_R
Unterarm_R	Oberarm_R
Vorderpfote_R	Unterarm_R
Schwanz	Becken
Schwanz_001	Schwanz
Schwanz_002	Schwanz_001
Schwanz_003	Schwanz_002
Oberschenkel_L	Becken
Unterschenkel_L	Oberschenkel_L
Pfote1_L	Unterschenkel_L
Pfote2_L	Pfote1_L
Oberschenkel_R	Becken
Unterschenkel_R	Oberschenkel_R
Pfote1_R	Unterschenkel_R
Pfote2_R	Pfote1_R
[BasePosition]
Wolf	0	0	0	0	0	0	1
Becken	0	0	0	0	0	0	1
Bauch	0	0	0	0	0	0	1
Bauch_001	0	0	0	0	0	0	1
Brust	0	0	0	0	0	0	1
Hals	0	0	0	0	0	0	1
Kopf_002	0	0	0	0	0	0	1
Kopf	0	0	0	0	0	0	1
Unterkiefer	0	0	0	0	0	0	1
Hals_fett	0	0	0	0	0	0	1
Maulunten	0	0	0	0	0	0	1
Mauloben	0	0	0	0	0	0	1
MundW_L	0	0	0	0	0	0	1
MundW_R	0	0	0	0	0	0	1
Augen_con	0	0	0	0	0	0	1
IK_Aug_R	0	0	0	0	0	0	1
IK_Aug_L	0	0	0	0	0	0	1
Aug_R	0	0	0	0	0	0	1
aug_L	0	0	0	0	0	0	1
Ohr_L	0	0	0	0	0	0	1
Ohr_R	0	0	0	0	0	0	1
Braun_O_L	0	0	0	0	0	0	1
Braun_O_R	0	0	0	0	0	0	1
aug_lied_O_L	0	0	0	0	0	0	1
aug_lied_O_R	0	0	0	0	0	0	1
aug_lied_U_L	0	0	0	0	0	0	1
aug_lied_U_R	0	0	0	0	0	0	1
Bauch_003	0	0	0	0	0	0	1
Schalterplatte_L	0	0	0	0	0	0	1
Oberarm_L	0	0	0	0	0	0	1
Unterarm_L	0	0	0	0	0	0	1
Vorderpfote_L	0	0	0	0	0	0	1
Schalterplatte_R	0	0	0	0	0	0	1
Oberarm_R	0	0	0	0	0	0	1
Unterarm_R	0	0	0	0	0	0	1
Vorderpfote_R	0	0	0	0	0	0	1
Schwanz	0	0	0	0	0	0	1
Schwanz_001	0	0	0	0	0	0	1
Schwanz_002	0	0	0	0	0	0	1
Schwanz_003	0	0	0	0	0	0	1
Oberschenkel_L	0	0	0	0	0	0	1
Unterschenkel_L	0	0	0	0	0	0	1
Pfote1_L	0	0	0	0	0	0	1
Pfote2_L	0	0	0	0	0	0	1
Oberschenkel_R	0	0	0	0	0	0	1
Unterschenkel_R	0	0	0	0	0	0	1
Pfote1_R	0	0	0	0	0	0	1
Pfote2_R	0	0	0	0	0	0	1
[Wolf]
40	0	0	0	-90	-0	0	1.0
41	0	0	0	-90	-0	0	1.0
42	0	0	0	-90	-0	0	1.0
[Becken]
40	0	0.5621799231	0.5320961475	-0.5769031644	169.3784637	89.79258728	1.0
41	0	0.5621799231	0.5236400962	-0.8349837661	169.3795319	89.69979858	1.0
42	0	0.5621799231	0.5128641129	-1.071389437	169.3809814	89.61481476	1.0
[Bauch]
40	0.9404072165	7.335228958e-08	-0.3559131622	-9.70548399e-07	12.60522652	-8.885302805e-08	1.0
41	0.9404072165	7.335228958e-08	-0.3559131622	-9.70548399e-07	12.60522652	-8.885302805e-08	1.0
42	0.9404072165	7.335228958e-08	-0.3559131622	-9.70548399e-07	12.60522652	-8.885302805e-08	1.0
[Bauch_001]
40	1.081897616	8.323696221e-08	1.180524034e-08	-2.503413032e-09	2.360082865	-2.670307531e-08	1.0
41	1.081897616	8.323696221e-08	1.180524034e-08	-2.503413032e-09	2.360082865	-2.670307531e-08	1.0
42	1.081897616	8.323696221e-08	1.180524034e-08	-2.503413032e-09	2.360082865	-2.670307531e-08	1.0
[Brust]
40	1.069831252	8.440110832e-08	3.139576066e-08	5.110827715e-06	15.29276085	-3.549572648e-05	1.0
41	1.069831252	8.440110832e-08	3.139576066e-08	5.110827715e-06	14.94994545	-3.549572648e-05	1.0
42	1.069831252	8.440110832e-08	3.139576066e-08	5.110827715e-06	14.51317215	-3.549572648e-05	1.0
[Hals]
40	1.258022308	9.662471712e-08	0.6079561114	-4.810633527e-06	46.87745667	-2.341890877e-06	1.0
41	1.258022308	9.662471712e-08	0.6079561114	-4.810633527e-06	46.87745667	-2.341890877e-06	1.0
42	1.258022308	9.662471712e-08	0.6079561114	-4.810633527e-06	46.87745667	-2.341890877e-06	1.0
[Kopf_002]
40	1.752595186	3.012712114e-05	0.265181601	0.006653386634	-165.1497192	0.002557684667	1.0
41	1.752595186	3.012712114e-05	0.265181601	0.006653386634	-165.1497192	0.002557684667	1.0
42	1.752595186	3.012712114e-05	0.265181601	0.006653386634	-165.1497192	0.002557684667	1.0
[Kopf]
40	1.015782118	6.868503988e-08	-5.515175872e-08	0.05868805945	114.1674118	-0.03488015756	1.0
41	1.015782118	6.868503988e-08	-5.515175872e-08	0.05968729034	114.8527832	-0.03397037834	1.0
42	1.015782118	6.868503988e-08	-5.515175872e-08	0.06092703715	115.7263489	-0.03286256269	1.0
[Unterkiefer]
40	0.6370447874	0.004552732222	0.4060618579	5.412721634	-68.3888092	-3.093543291	1.0
41	0.6370447874	0.004552732222	0.4060618579	5.412721634	-68.3888092	-3.093543291	1.0
42	0.6370447874	0.004552732222	0.4060618579	5.412721634	-68.3888092	-3.093543291	1.0
[Hals_fett]
40	0.2998305857	0.007747137919	0.1206372604	-5.071650982	-59.35961151	5.585564613	1.0
41	0.2998305857	0.007747137919	0.1206372604	-5.071650982	-59.35961151	5.585564613	1.0
42	0.2998305857	0.007747137919	0.1206372604	-5.071650982	-59.35961151	5.585564613	1.0
[Maulunten]
40	0.0831861794	-0.007747565862	-0.1206544712	-3.322209358	38.97271347	-0.8718761206	1.0
41	0.0831861794	-0.007747565862	-0.1206544712	-3.322209358	38.97271347	-0.8718761206	1.0
42	0.0831861794	-0.007747565862	-0.1206544712	-3.322209358	38.97271347	-0.8718761206	1.0
[Mauloben]
40	0.9101490974	0.0004056713078	0.4003697634	-0.1032672822	-28.7776947	0.03543138877	1.0
41	0.9101490974	0.0004056713078	0.4003697634	-0.1032672822	-28.7776947	0.03543138877	1.0
42	0.9101490974	0.0004056713078	0.4003697634	-0.1032672822	-28.7776947	0.03543138877	1.0
[MundW_L]
40	0.673060894	-0.3618555963	0.3751283586	-179.8370972	-17.94885063	24.713974	1.0
41	0.673060894	-0.3618555963	0.3751283586	-179.8370972	-17.94885063	24.713974	1.0
42	0.673060894	-0.3618555963	0.3751283586	-179.8370972	-17.94885063	24.713974	1.0
[MundW_R]
40	0.6732419133	0.3627035022	0.3739836514	179.665329	-18.02427101	-24.69083595	1.0
41	0.6732419133	0.3627035022	0.3739836514	179.665329	-18.02427101	-24.69083595	1.0
42	0.6732419133	0.3627035022	0.3739836514	179.665329	-18.02427101	-24.69083595	1.0
[Augen_con]
40	1.807373166	-0.0001604110003	0.183581531	0.0982221961	157.1545258	0.02385941334	1.0
41	1.807373166	-0.0001604110003	0.183581531	0.0982221961	157.1545258	0.02385941334	1.0
42	1.807373166	-0.0001604110003	0.183581531	0.0982221961	157.1545258	0.02385941334	1.0
[IK_Aug_R]
40	0.3461295962	0.2943200469	-1.071020961e-07	-0.4194760025	-4.963055134	165.6946411	1.0
41	0.3461295962	0.2943200469	-1.071020961e-07	-0.4194760025	-4.963055134	165.6946411	1.0
42	0.3461295962	0.2943200469	-1.071020961e-07	-0.4194760025	-4.963055134	165.6946411	1.0
[IK_Aug_L]
40	0.3461301029	-0.2943200171	-1.967418939e-07	0.4194771945	-4.963055134	-165.6946411	1.0
41	0.3461301029	-0.2943200171	-1.967418939e-07	0.4194771945	-4.963055134	-165.6946411	1.0
42	0.3461301029	-0.2943200171	-1.967418939e-07	0.4194771945	-4.963055134	-165.6946411	1.0
[Aug_R]
40	1.035154939	0.2207805216	-0.09605780989	176.004776	-17.29167175	12.85548782	1.0
41	1.035154939	0.2207805216	-0.09605780989	176.004776	-17.29167175	12.85548782	1.0
42	1.035154939	0.2207805216	-0.09605780989	176.004776	-17.29167175	12.85548782	1.0
[aug_L]
40	1.03504467	-0.2215988934	-0.09535907209	-176.1891022	-17.33180046	-12.83102131	1.0
41	1.03504467	-0.2215988934	-0.09535907209	-176.1891022	-17.33180046	-12.83102131	1.0
42	1.03504467	-0.2215988934	-0.09535907209	-176.1891022	-17.33180046	-12.83102131	1.0
[Ohr_L]
40	0.6407766938	-0.3659991026	-0.6893324852	-24.34923935	53.07765961	-15.02013397	1.0
41	0.6407766938	-0.3659991026	-0.6893324852	-24.34923935	53.07765961	-15.02013397	1.0
42	0.6407766938	-0.3659991026	-0.6893324852	-24.34923935	53.07765961	-15.02013397	1.0
[Ohr_R]
40	0.640958488	0.36349985	-0.690484941	24.05785561	53.12415695	14.75856686	1.0
41	0.640958488	0.36349985	-0.690484941	24.05785561	53.12415695	14.75856686	1.0
42	0.640958488	0.36349985	-0.690484941	24.05785561	53.12415695	14.75856686	1.0
[Braun_O_L]
40	0.9801894426	-0.3706049323	-0.3292509615	-143.317215	-34.69636154	52.39493942	1.0
41	0.9801894426	-0.3706049323	-0.3292509615	-143.317215	-34.69636154	52.39493942	1.0
42	0.9801894426	-0.3706049323	-0.3292509615	-143.317215	-34.69636154	52.39493942	1.0
[Braun_O_R]
40	0.9803640842	0.3690741956	-0.3304226995	143.1826782	-34.83971405	-52.34676361	1.0
41	0.9803640842	0.3690741956	-0.3304226995	143.1826782	-34.83971405	-52.34676361	1.0
42	0.9803640842	0.3690741956	-0.3304226995	143.1826782	-34.83971405	-52.34676361	1.0
[aug_lied_O_L]
40	1.038882375	-0.3271433413	-0.1608109176	-175.8613434	-20.15596771	60.31667709	1.0
41	1.038882375	-0.3271433413	-0.1608109176	-175.8613434	-20.15596771	60.31667709	1.0
42	1.038882375	-0.3271433413	-0.1608109176	-175.8613434	-20.15596771	60.31667709	1.0
[aug_lied_O_R]
40	1.039044976	0.326115787	-0.1618431658	175.7657928	-20.31324005	-60.31218338	1.0
41	1.039044976	0.326115787	-0.1618431658	175.7657928	-20.31324005	-60.31218338	1.0
42	1.039044976	0.326115787	-0.1618431658	175.7657928	-20.31324005	-60.31218338	1.0
[aug_lied_U_L]
40	1.02191329	-0.3312865198	-0.1338392347	-159.8099365	-28.7482872	60.17462158	1.0
41	1.02191329	-0.3312865198	-0.1338392347	-159.8099365	-28.7482872	60.17462158	1.0
42	1.02191329	-0.3312865198	-0.1338392347	-159.8099365	-28.7482872	60.17462158	1.0
[aug_lied_U_R]
40	1.022078872	0.3303525448	-0.1348842829	159.7071381	-28.90532303	-60.15359116	1.0
41	1.022078872	0.3303525448	-0.1348842829	159.7071381	-28.90532303	-60.15359116	1.0
42	1.022078872	0.3303525448	-0.1348842829	159.7071381	-28.90532303	-60.15359116	1.0
[Bauch_003]
40	1.276869178	9.429641068e-08	-0.6079563498	-3.842957085e-06	-137.6799469	1.008550771e-05	1.0
41	1.276869178	9.429641068e-08	-0.6079563498	-3.842957085e-06	-137.6799469	1.008550771e-05	1.0
42	1.276869178	9.429641068e-08	-0.6079563498	-3.842957085e-06	-137.6799469	1.008550771e-05	1.0
[Schalterplatte_L]
40	0.9072801471	-0.3820410371	-0.02659013309	-88.11525726	75.68291473	-117.0436172	1.0
41	0.9136086106	-0.3817363083	-0.03625930473	-89.51454163	75.52763367	-118.3496246	1.0
42	0.9221926332	-0.3814315796	-0.04592847452	-90.82452393	75.5071106	-119.5252686	1.0
[Oberarm_L]
40	1.418636799	1.443549991e-07	9.778887033e-08	-94.53187561	-65.33114624	113.4521408	1.0
41	1.418636799	1.443549991e-07	9.778887033e-08	-87.07596588	-65.68748474	104.7902679	1.0
42	1.418636799	1.443549991e-07	9.778887033e-08	-79.85353851	-65.43545532	96.32933044	1.0
[Unterarm_L]
40	2.028227329	8.847563748e-08	-3.725290298e-07	13.79148102	65.36969757	16.83909225	1.0
41	2.028227329	8.847563748e-08	-3.725290298e-07	12.5178442	65.44766998	15.29869175	1.0
42	2.028227329	8.847563748e-08	-3.725290298e-07	10.8382616	64.90988159	13.32485485	1.0
[Vorderpfote_L]
40	1.705947638	1.746229827e-07	-5.704351125e-08	-31.89401054	-14.24209976	-1.226445079	1.0
41	1.705947638	1.746229827e-07	-5.704351125e-08	-32.9127655	-13.9319706	-0.3892947733	1.0
42	1.705947638	1.746229827e-07	-5.704351125e-08	-33.49216461	-13.67674637	0.05262460187	1.0
[Schalterplatte_R]
40	0.9081591368	0.3864067197	0.03493797407	3.571306229	66.35460663	30.40968704	1.0
41	0.9231546521	0.3885978162	0.05053022876	3.459204197	66.23635864	30.27737427	1.0
42	0.9432834983	0.3907889426	0.06819234788	3.498427629	66.28224945	30.32852173	1.0
[Oberarm_R]
40	1.418636322	-1.210719205e-07	-7.450580597e-08	52.33331299	-55.92619705	-62.01316071	1.0
41	1.418636322	-1.210719205e-07	-7.450580597e-08	53.62394333	-56.3021431	-63.68984222	1.0
42	1.418636322	-1.210719205e-07	-7.450580597e-08	55.08795929	-56.70420456	-65.56600189	1.0
[Unterarm_R]
40	2.028231859	1.676380634e-07	-3.608874977e-07	-0.9520022869	39.0607338	-0.9031493664	1.0
41	2.028231859	1.676380634e-07	-3.608874977e-07	-1.108058691	39.54856873	-1.082974553	1.0
42	2.028231859	1.676380634e-07	-3.608874977e-07	-1.276460648	40.24642944	-1.27306211	1.0
[Vorderpfote_R]
40	1.705937624	7.799826562e-08	1.461012289e-07	3.945409298	80.75191498	3.558923721	1.0
41	1.705937624	7.799826562e-08	1.461012289e-07	3.92292428	81.25941467	3.537713051	1.0
42	1.705937624	7.799826562e-08	1.461012289e-07	3.950062513	81.90335846	3.567172527	1.0
[Schwanz]
40	-0.09569822252	-1.382431947e-08	0.06344327331	-2.220226997e-05	-120.133606	2.181978562e-05	1.0
41	-0.1015162095	-1.382431947e-08	0.06614691019	-2.220226997e-05	-119.479187	2.181978562e-05	1.0
42	-0.1089342386	-1.382431947e-08	0.07108178735	-2.220226997e-05	-118.6451035	2.181978562e-05	1.0
[Schwanz_001]
40	0.9104328156	6.868503988e-08	7.788912626e-08	-2.408194405e-06	16.15045738	-5.75290926e-07	1.0
41	0.9104328156	6.868503988e-08	7.788912626e-08	-2.408194405e-06	15.2586422	-5.75290926e-07	1.0
42	0.9104328156	6.868503988e-08	7.788912626e-08	-2.408194405e-06	14.12158489	-5.75290926e-07	1.0
[Schwanz_002]
40	0.7855660319	5.704351125e-08	-1.185253495e-07	8.174235973e-07	-3.178394318	-1.362372615e-07	1.0
41	0.7855660319	5.704351125e-08	-1.185253495e-07	8.174235973e-07	-3.82373929	-1.362372615e-07	1.0
42	0.7855660319	5.704351125e-08	-1.185253495e-07	8.174235973e-07	-4.646232605	-1.362372615e-07	1.0
[Schwanz_003]
40	0.8350355029	6.286426668e-08	-2.072192729e-07	-2.187832479e-06	-4.847285271	1.867661581e-07	1.0
41	0.8350355029	6.286426668e-08	-2.072192729e-07	-2.187832479e-06	-4.505778313	1.867661581e-07	1.0
42	0.8350355029	6.286426668e-08	-2.072192729e-07	-2.187832479e-06	-4.070662498	1.867661581e-07	1.0
[Oberschenkel_L]
40	0.708968699	-0.5836999416	0.08334958553	-121.78228	-96.44442749	126.0849304	1.0
41	0.6850639582	-0.5836999416	0.08643729985	-112.872879	-95.8150177	117.123497	1.0
42	0.6537941694	-0.5836999416	0.09188250452	-105.8996124	-95.52266693	110.1165924	1.0
[Unterschenkel_L]
40	1.686439037	6.984918599e-08	-6.053597446e-08	-9.657805443	-26.8783226	16.79349327	1.0
41	1.686439037	6.984918599e-08	-6.053597446e-08	-9.724049568	-27.851017	16.44487762	1.0
42	1.686439037	6.984918599e-08	-6.053597446e-08	-10.01301861	-29.58945656	16.32913971	1.0
[Pfote1_L]
40	1.190900326	6.519258022e-08	1.396983862e-07	2.491256952	27.2337265	-5.451664925	1.0
41	1.190900326	6.519258022e-08	1.396983862e-07	2.498007298	27.06258202	-5.436878204	1.0
42	1.190900326	6.519258022e-08	1.396983862e-07	2.495969772	27.11447906	-5.441356182	1.0
[Pfote2_L]
40	0.9876257777	7.450580597e-08	-5.587935092e-08	-162.4148407	85.85677338	-167.7008514	1.0
41	0.9876257777	7.450580597e-08	-5.587935092e-08	-156.9418945	86.58354187	-162.0263824	1.0
42	0.9876257777	7.450580597e-08	-5.587935092e-08	-136.5554504	87.80234528	-141.438797	1.0
[Oberschenkel_R]
40	0.5482727289	0.5837000012	-0.07187379897	-12.16116619	-47.70133972	6.046151638	1.0
41	0.5678260922	0.5837000012	-0.06192369014	-12.13427639	-47.51932526	6.009757519	1.0
42	0.5892386436	0.5837000012	-0.04830958694	-12.16784096	-47.74617004	6.055166245	1.0
[Unterschenkel_R]
40	1.68644917	1.164153218e-07	2.793967901e-08	52.78365707	-71.89725494	-62.77225494	1.0
41	1.68644917	1.164153218e-07	2.793967901e-08	48.48039627	-70.64378357	-58.67278671	1.0
42	1.68644917	1.164153218e-07	2.793967901e-08	43.74273682	-68.89702606	-54.07019043	1.0
[Pfote1_R]
40	1.190900087	1.856824383e-07	4.190951941e-08	-2.306492805	35.15690994	5.836970329	1.0
41	1.190900087	1.856824383e-07	4.190951941e-08	-2.341207504	35.87474823	5.77708292	1.0
42	1.190900087	1.856824383e-07	4.190951941e-08	-2.374351025	36.53165436	5.721078396	1.0
[Pfote2_R]
40	0.9876258373	6.984919754e-09	6.635672634e-08	57.17939377	83.41415405	63.87695313	1.0
41	0.9876258373	6.984919754e-09	6.635672634e-08	51.59207916	83.22001648	58.48083878	1.0
42	0.9876258373	6.984919754e-09	6.635672634e-08	45.54827881	82.97387695	52.60038757	1.0
[EndOfFile]
